<svg width="667" height="694" viewBox="0 0 667 694" fill="none" xmlns="http://www.w3.org/2000/svg">
<path fill-rule="evenodd" clip-rule="evenodd" d="M588 694C778.538 694 933 538.643 933 347C933 155.357 778.538 0 588 0C397.462 0 243 155.357 243 347C243 538.643 397.462 694 588 694Z" fill="#FAFAFA"/>
<path d="M500 285.79C456.394 265.666 336.799 248.705 207.268 341.847C77.7369 434.989 -42.2153 368.936 -86 324.267" stroke="#404040" stroke-width="15" stroke-dasharray="25 25"/>
<path d="M501 318.796L524.423 265L576.594 319.712L501 318.796ZM512.116 311.637L559.278 312.173L526.756 278.015L521.632 289.782L539.609 303.609L517.24 299.869L512.116 311.637Z" fill="#404040"/>
<path d="M400.728 375L386.748 343.5H391.188L404.028 372.72H401.928L414.948 343.5H419.148L405.108 375H400.728ZM439.11 348.84V345.3H465.21V348.84H439.11ZM439.11 362.7V359.16H465.21V362.7H439.11ZM504.205 375.36C500.845 375.36 497.945 374.88 495.505 373.92C493.105 372.96 491.245 371.58 489.925 369.78C488.645 367.94 488.005 365.78 488.005 363.3C488.005 360.9 488.625 358.86 489.865 357.18C491.145 355.46 492.985 354.14 495.385 353.22C497.825 352.3 500.765 351.84 504.205 351.84C507.605 351.84 510.525 352.3 512.965 353.22C515.405 354.14 517.265 355.46 518.545 357.18C519.865 358.86 520.525 360.9 520.525 363.3C520.525 365.78 519.865 367.94 518.545 369.78C517.225 371.58 515.345 372.96 512.905 373.92C510.465 374.88 507.565 375.36 504.205 375.36ZM504.205 371.7C507.925 371.7 510.825 370.94 512.905 369.42C515.025 367.9 516.085 365.84 516.085 363.24C516.085 360.64 515.025 358.6 512.905 357.12C510.825 355.6 507.925 354.84 504.205 354.84C500.485 354.84 497.585 355.6 495.505 357.12C493.425 358.6 492.385 360.64 492.385 363.24C492.385 365.84 493.425 367.9 495.505 369.42C497.585 370.94 500.485 371.7 504.205 371.7ZM504.205 354.3C501.085 354.3 498.425 353.88 496.225 353.04C494.065 352.2 492.405 351 491.245 349.44C490.085 347.84 489.505 345.94 489.505 343.74C489.505 341.42 490.105 339.44 491.305 337.8C492.545 336.12 494.265 334.84 496.465 333.96C498.665 333.08 501.245 332.64 504.205 332.64C507.165 332.64 509.745 333.08 511.945 333.96C514.185 334.84 515.925 336.12 517.165 337.8C518.405 339.44 519.025 341.42 519.025 343.74C519.025 345.94 518.445 347.84 517.285 349.44C516.125 351 514.425 352.2 512.185 353.04C509.985 353.88 507.325 354.3 504.205 354.3ZM504.205 351.42C507.485 351.42 510.045 350.74 511.885 349.38C513.725 348.02 514.645 346.2 514.645 343.92C514.645 341.52 513.685 339.66 511.765 338.34C509.885 336.98 507.365 336.3 504.205 336.3C501.045 336.3 498.525 336.98 496.645 338.34C494.765 339.66 493.825 341.5 493.825 343.86C493.825 346.18 494.725 348.02 496.525 349.38C498.365 350.74 500.925 351.42 504.205 351.42ZM568.687 343.2C571.247 343.2 573.467 343.7 575.347 344.7C577.267 345.66 578.747 347.14 579.787 349.14C580.867 351.14 581.407 353.66 581.407 356.7V375H577.147V357.12C577.147 353.8 576.347 351.3 574.747 349.62C573.187 347.9 570.967 347.04 568.087 347.04C565.927 347.04 564.047 347.5 562.447 348.42C560.887 349.3 559.667 350.6 558.787 352.32C557.947 354 557.527 356.04 557.527 358.44V375H553.267V357.12C553.267 353.8 552.467 351.3 550.867 349.62C549.267 347.9 547.027 347.04 544.147 347.04C542.027 347.04 540.167 347.5 538.567 348.42C536.967 349.3 535.727 350.6 534.847 352.32C534.007 354 533.587 356.04 533.587 358.44V375H529.327V343.5H533.407V352.02L532.747 350.52C533.707 348.24 535.247 346.46 537.367 345.18C539.527 343.86 542.067 343.2 544.987 343.2C548.067 343.2 550.687 343.98 552.847 345.54C555.007 347.06 556.407 349.36 557.047 352.44L555.367 351.78C556.287 349.22 557.907 347.16 560.227 345.6C562.587 344 565.407 343.2 568.687 343.2ZM585.52 381L605.32 324.48H609.22L589.42 381H585.52ZM617.416 375.3C614.816 375.3 612.356 374.94 610.036 374.22C607.716 373.46 605.896 372.52 604.576 371.4L606.496 368.04C607.776 369 609.416 369.84 611.416 370.56C613.416 371.24 615.516 371.58 617.716 371.58C620.716 371.58 622.876 371.12 624.196 370.2C625.516 369.24 626.176 367.98 626.176 366.42C626.176 365.26 625.796 364.36 625.036 363.72C624.316 363.04 623.356 362.54 622.156 362.22C620.956 361.86 619.616 361.56 618.136 361.32C616.656 361.08 615.176 360.8 613.696 360.48C612.256 360.16 610.936 359.7 609.736 359.1C608.536 358.46 607.556 357.6 606.796 356.52C606.076 355.44 605.716 354 605.716 352.2C605.716 350.48 606.196 348.94 607.156 347.58C608.116 346.22 609.516 345.16 611.356 344.4C613.236 343.6 615.516 343.2 618.196 343.2C620.236 343.2 622.276 343.48 624.316 344.04C626.356 344.56 628.036 345.26 629.356 346.14L627.496 349.56C626.096 348.6 624.596 347.92 622.996 347.52C621.396 347.08 619.796 346.86 618.196 346.86C615.356 346.86 613.256 347.36 611.896 348.36C610.576 349.32 609.916 350.56 609.916 352.08C609.916 353.28 610.276 354.22 610.996 354.9C611.756 355.58 612.736 356.12 613.936 356.52C615.176 356.88 616.516 357.18 617.956 357.42C619.436 357.66 620.896 357.96 622.336 358.32C623.816 358.64 625.156 359.1 626.356 359.7C627.596 360.26 628.576 361.08 629.296 362.16C630.056 363.2 630.436 364.58 630.436 366.3C630.436 368.14 629.916 369.74 628.876 371.1C627.876 372.42 626.396 373.46 624.436 374.22C622.516 374.94 620.176 375.3 617.416 375.3Z" fill="#404040"/>
</svg>
