<svg width="1428" height="1186" viewBox="0 0 1428 1186" fill="none" xmlns="http://www.w3.org/2000/svg">
<path fill-rule="evenodd" clip-rule="evenodd" d="M1358.32 1186C1683.8 1186 1947.65 920.505 1947.65 593C1947.65 265.495 1683.8 0 1358.32 0C1032.85 0 769 265.495 769 593C769 920.505 1032.85 1186 1358.32 1186Z" fill="#FAFAFA"/>
<path d="M985.964 658L963.596 607.6H970.7L991.244 654.352H987.884L1008.72 607.6H1015.44L992.972 658H985.964ZM1047.38 616.144V610.48H1089.14V616.144H1047.38ZM1047.38 638.32V632.656H1089.14V638.32H1047.38ZM1151.53 658.576C1146.15 658.576 1141.51 657.808 1137.61 656.272C1133.77 654.736 1130.79 652.528 1128.68 649.648C1126.63 646.704 1125.61 643.248 1125.61 639.28C1125.61 635.44 1126.6 632.176 1128.58 629.488C1130.63 626.736 1133.58 624.624 1137.42 623.152C1141.32 621.68 1146.02 620.944 1151.53 620.944C1156.97 620.944 1161.64 621.68 1165.54 623.152C1169.45 624.624 1172.42 626.736 1174.47 629.488C1176.58 632.176 1177.64 635.44 1177.64 639.28C1177.64 643.248 1176.58 646.704 1174.47 649.648C1172.36 652.528 1169.35 654.736 1165.45 656.272C1161.54 657.808 1156.9 658.576 1151.53 658.576ZM1151.53 652.72C1157.48 652.72 1162.12 651.504 1165.45 649.072C1168.84 646.64 1170.54 643.344 1170.54 639.184C1170.54 635.024 1168.84 631.76 1165.45 629.392C1162.12 626.96 1157.48 625.744 1151.53 625.744C1145.58 625.744 1140.94 626.96 1137.61 629.392C1134.28 631.76 1132.62 635.024 1132.62 639.184C1132.62 643.344 1134.28 646.64 1137.61 649.072C1140.94 651.504 1145.58 652.72 1151.53 652.72ZM1151.53 624.88C1146.54 624.88 1142.28 624.208 1138.76 622.864C1135.3 621.52 1132.65 619.6 1130.79 617.104C1128.94 614.544 1128.01 611.504 1128.01 607.984C1128.01 604.272 1128.97 601.104 1130.89 598.48C1132.87 595.792 1135.62 593.744 1139.14 592.336C1142.66 590.928 1146.79 590.224 1151.53 590.224C1156.26 590.224 1160.39 590.928 1163.91 592.336C1167.5 593.744 1170.28 595.792 1172.26 598.48C1174.25 601.104 1175.24 604.272 1175.24 607.984C1175.24 611.504 1174.31 614.544 1172.46 617.104C1170.6 619.6 1167.88 621.52 1164.3 622.864C1160.78 624.208 1156.52 624.88 1151.53 624.88ZM1151.53 620.272C1156.78 620.272 1160.87 619.184 1163.82 617.008C1166.76 614.832 1168.23 611.92 1168.23 608.272C1168.23 604.432 1166.7 601.456 1163.62 599.344C1160.62 597.168 1156.58 596.08 1151.53 596.08C1146.47 596.08 1142.44 597.168 1139.43 599.344C1136.42 601.456 1134.92 604.4 1134.92 608.176C1134.92 611.888 1136.36 614.832 1139.24 617.008C1142.18 619.184 1146.28 620.272 1151.53 620.272ZM1254.7 607.12C1258.79 607.12 1262.35 607.92 1265.35 609.52C1268.43 611.056 1270.79 613.424 1272.46 616.624C1274.19 619.824 1275.05 623.856 1275.05 628.72V658H1268.23V629.392C1268.23 624.08 1266.95 620.08 1264.39 617.392C1261.9 614.64 1258.35 613.264 1253.74 613.264C1250.28 613.264 1247.27 614 1244.71 615.472C1242.22 616.88 1240.27 618.96 1238.86 621.712C1237.51 624.4 1236.84 627.664 1236.84 631.504V658H1230.03V629.392C1230.03 624.08 1228.75 620.08 1226.19 617.392C1223.63 614.64 1220.04 613.264 1215.43 613.264C1212.04 613.264 1209.07 614 1206.51 615.472C1203.95 616.88 1201.96 618.96 1200.55 621.712C1199.21 624.4 1198.54 627.664 1198.54 631.504V658H1191.72V607.6H1198.25V621.232L1197.19 618.832C1198.73 615.184 1201.19 612.336 1204.59 610.288C1208.04 608.176 1212.11 607.12 1216.78 607.12C1221.71 607.12 1225.9 608.368 1229.35 610.864C1232.81 613.296 1235.05 616.976 1236.07 621.904L1233.39 620.848C1234.86 616.752 1237.45 613.456 1241.16 610.96C1244.94 608.4 1249.45 607.12 1254.7 607.12ZM1281.63 667.6L1313.31 577.168H1319.55L1287.87 667.6H1281.63ZM1332.67 658.48C1328.51 658.48 1324.57 657.904 1320.86 656.752C1317.15 655.536 1314.23 654.032 1312.12 652.24L1315.19 646.864C1317.24 648.4 1319.87 649.744 1323.07 650.896C1326.27 651.984 1329.63 652.528 1333.15 652.528C1337.95 652.528 1341.4 651.792 1343.51 650.32C1345.63 648.784 1346.68 646.768 1346.68 644.272C1346.68 642.416 1346.07 640.976 1344.86 639.952C1343.71 638.864 1342.17 638.064 1340.25 637.552C1338.33 636.976 1336.19 636.496 1333.82 636.112C1331.45 635.728 1329.08 635.28 1326.71 634.768C1324.41 634.256 1322.3 633.52 1320.38 632.56C1318.46 631.536 1316.89 630.16 1315.67 628.432C1314.52 626.704 1313.95 624.4 1313.95 621.52C1313.95 618.768 1314.71 616.304 1316.25 614.128C1317.79 611.952 1320.03 610.256 1322.97 609.04C1325.98 607.76 1329.63 607.12 1333.91 607.12C1337.18 607.12 1340.44 607.568 1343.71 608.464C1346.97 609.296 1349.66 610.416 1351.77 611.824L1348.79 617.296C1346.55 615.76 1344.15 614.672 1341.59 614.032C1339.03 613.328 1336.47 612.976 1333.91 612.976C1329.37 612.976 1326.01 613.776 1323.83 615.376C1321.72 616.912 1320.67 618.896 1320.67 621.328C1320.67 623.248 1321.24 624.752 1322.39 625.84C1323.61 626.928 1325.18 627.792 1327.1 628.432C1329.08 629.008 1331.23 629.488 1333.53 629.872C1335.9 630.256 1338.23 630.736 1340.54 631.312C1342.91 631.824 1345.05 632.56 1346.97 633.52C1348.95 634.416 1350.52 635.728 1351.67 637.456C1352.89 639.12 1353.5 641.328 1353.5 644.08C1353.5 647.024 1352.67 649.584 1351 651.76C1349.4 653.872 1347.03 655.536 1343.9 656.752C1340.83 657.904 1337.08 658.48 1332.67 658.48Z" fill="#404040"/>
<path d="M1096.55 558.63L1125.22 471.226L1214.68 548.964L1096.55 558.63ZM1112.85 545.825L1186.54 539.738L1130.77 491.197L1124.5 510.316L1154.59 529.259L1119.12 526.705L1112.85 545.825Z" fill="#404040"/>
<path d="M1093 511.812C1012.04 480.19 789.993 453.537 549.498 599.903C309.003 746.268 86.2931 642.471 5 572.276" stroke="#404040" stroke-width="15" stroke-dasharray="25 25"/>
</svg>
