<svg width="1440" height="772" viewBox="0 0 1440 772" fill="none" xmlns="http://www.w3.org/2000/svg">
<path d="M786 151.599C705.039 116.425 482.993 86.7792 242.498 249.581C2.00293 412.384 -220.707 296.93 -302 218.853" stroke="#2563EB" stroke-width="15" stroke-dasharray="25 25"/>
<path d="M898.443 204.037L780.02 200.736L818.047 117.022L898.443 204.037ZM813.041 155.782L813.049 155.788L840.849 177.874L805.926 171.469L805.916 171.467L797.582 189.813L797.602 189.813L871.516 191.818L871.546 191.819L871.526 191.797L821.388 137.45L821.374 137.436L813.041 155.782Z" fill="#2563EB" stroke="#2563EB" stroke-width="0.025"/>
<path d="M65 0L194.904 75V225L65 300L-64.9038 225V75L65 0Z" fill="#D9D9D9"/>
<path d="M202 236L331.904 311V461L202 536L72.0962 461V311L202 236Z" fill="#D9D9D9"/>
<path d="M-71 236L58.9038 311V461L-71 536L-200.904 461V311L-71 236Z" fill="#D9D9D9"/>
<path d="M1385 0L1514.9 75V225L1385 300L1255.1 225V75L1385 0Z" fill="#D9D9D9"/>
<path d="M1249 236L1378.9 311V461L1249 536L1119.1 461V311L1249 236Z" fill="#D9D9D9"/>
<path d="M1523 236L1652.9 311V461L1523 536L1393.1 461V311L1523 236Z" fill="#D9D9D9"/>
<path d="M1385 472L1514.9 547V697L1385 772L1255.1 697V547L1385 472Z" fill="#D9D9D9"/>
<path d="M976 236L1105.9 311V461L976 536L846.096 461V311L976 236Z" fill="#D9D9D9"/>
</svg>
