<svg width="1308" height="358" viewBox="0 0 1308 358" fill="none" xmlns="http://www.w3.org/2000/svg">
<g clip-path="url(#clip0_5133_211)">
<path d="M1221.72 264.499C1222.91 255.369 1221.72 246.62 1218.15 238.254C1214.59 229.887 1209.04 223.11 1201.5 217.921L1197.15 226.446L1221.72 264.499ZM1150.12 252.812L1170.86 251.644L1190.84 212.483C1187.87 211.3 1184.79 210.539 1181.6 210.201C1178.42 209.863 1175.22 209.77 1172.01 209.922L1150.12 252.812ZM1126.97 254.093L1136.34 253.501L1156.86 213.275C1151.41 215.415 1146.55 218.419 1142.28 222.285C1138.01 226.151 1134.56 230.659 1131.94 235.81C1130.49 238.651 1129.34 241.618 1128.49 244.71C1127.64 247.801 1127.13 250.929 1126.97 254.093ZM1134.49 283.447L1182.66 281.166L1171.43 263.686L1127.54 266.136C1128.18 269.262 1129.05 272.279 1130.14 275.186C1131.23 278.093 1132.68 280.846 1134.49 283.447ZM1152.81 300.182C1159.47 303.581 1166.54 305.288 1174.03 305.305C1181.52 305.322 1188.63 303.686 1195.34 300.397L1190.19 292.731L1144.69 295.033C1145.98 296.025 1147.3 296.95 1148.65 297.808C1150 298.666 1151.39 299.457 1152.81 300.182ZM1205.29 294.058C1207.76 292.072 1210 289.827 1212 287.325C1214 284.822 1215.73 282.15 1217.18 279.309L1190.9 238.7L1181.52 257.081L1205.29 294.058ZM1147.37 310.838C1140 307.077 1133.79 302.145 1128.73 296.04C1123.68 289.935 1119.98 283.261 1117.63 276.019C1115.28 268.778 1114.36 261.202 1114.87 253.292C1115.38 245.383 1117.52 237.743 1121.28 230.372C1125.04 223.002 1129.97 216.789 1136.08 211.734C1142.18 206.679 1148.86 202.978 1156.1 200.629C1163.34 198.281 1170.92 197.362 1178.83 197.873C1186.74 198.383 1194.38 200.519 1201.75 204.28C1209.12 208.041 1215.33 212.974 1220.38 219.079C1225.44 225.183 1229.14 231.857 1231.49 239.099C1233.84 246.341 1234.76 253.916 1234.25 261.826C1233.73 269.736 1231.6 277.376 1227.84 284.746C1224.08 292.116 1219.14 298.329 1213.04 303.384C1206.93 308.439 1200.26 312.14 1193.02 314.489C1185.78 316.837 1178.2 317.756 1170.29 317.245C1162.38 316.735 1154.74 314.599 1147.37 310.838Z" fill="#2563EB"/>
</g>
<path d="M1121 226C582.046 -123.292 221.656 79.9954 -11 226" stroke="#2563EB" stroke-width="10" stroke-linecap="square"/>
<path d="M106.75 288.25V281H128.5V288.25H106.75ZM114 328.125H121.25V306.375H114V328.125ZM117.625 357.125C113.154 357.125 108.94 356.264 104.983 354.542C101.026 352.82 97.5667 350.479 94.6063 347.519C91.6458 344.558 89.3047 341.099 87.5828 337.142C85.8609 333.185 85 328.971 85 324.5C85 320.029 85.8609 315.815 87.5828 311.858C89.3047 307.901 91.6458 304.442 94.6063 301.481C97.5667 298.521 101.026 296.18 104.983 294.458C108.94 292.736 113.154 291.875 117.625 291.875C121.371 291.875 124.966 292.479 128.409 293.688C131.853 294.896 135.085 296.648 138.106 298.944L143.181 293.869L148.256 298.944L143.181 304.019C145.477 307.04 147.229 310.272 148.438 313.716C149.646 317.159 150.25 320.754 150.25 324.5C150.25 328.971 149.389 333.185 147.667 337.142C145.945 341.099 143.604 344.558 140.644 347.519C137.683 350.479 134.224 352.82 130.267 354.542C126.31 356.264 122.096 357.125 117.625 357.125ZM117.625 349.875C124.633 349.875 130.615 347.398 135.569 342.444C140.523 337.49 143 331.508 143 324.5C143 317.492 140.523 311.51 135.569 306.556C130.615 301.602 124.633 299.125 117.625 299.125C110.617 299.125 104.635 301.602 99.6813 306.556C94.7271 311.51 92.25 317.492 92.25 324.5C92.25 331.508 94.7271 337.49 99.6813 342.444C104.635 347.398 110.617 349.875 117.625 349.875Z" fill="#2563EB"/>
<path d="M375.541 273.135C378.864 273.199 381.703 272.014 384.059 269.581C386.416 267.148 387.594 264.162 387.594 260.623C387.594 258.79 387.186 257.068 386.37 255.457C385.555 253.845 384.513 252.408 383.244 251.144C380.948 248.742 378.184 246.91 374.952 245.646C371.719 244.382 368.472 243.75 365.209 243.75C363.336 243.75 361.917 244.24 360.95 245.219C359.983 246.199 359.5 247.605 359.5 249.437C359.5 252.787 359.998 256.057 360.995 259.248C361.992 262.44 363.578 265.268 365.753 267.732C367.082 269.186 368.562 270.45 370.194 271.524C371.825 272.598 373.607 273.135 375.541 273.135ZM406.988 251.523L395.478 239.484L418.588 228.015L420.219 244.698L406.988 251.523ZM418.225 258.348C417.198 258.853 416.126 258.996 415.008 258.774C413.89 258.553 412.969 258 412.244 257.116L410.975 255.694L420.853 250.765L421.034 252.66C421.216 253.861 421.049 254.983 420.536 256.025C420.022 257.068 419.252 257.842 418.225 258.348ZM352.25 249.437C352.25 245.267 353.383 242.012 355.648 239.674C357.914 237.336 361.101 236.167 365.209 236.167C369.499 236.167 373.698 237.02 377.806 238.726C381.915 240.432 385.509 242.897 388.591 246.12C390.464 248.079 391.959 250.291 393.077 252.755C394.194 255.22 394.753 257.842 394.753 260.623C394.753 262.645 394.466 264.604 393.892 266.5C393.318 268.396 392.427 270.134 391.219 271.713L417.409 299.108L412.334 304.417L386.144 277.022C384.573 278.223 382.896 279.155 381.114 279.818C379.332 280.482 377.474 280.782 375.541 280.719C372.641 280.655 369.907 279.929 367.339 278.538C364.771 277.148 362.521 275.284 360.588 272.946C357.869 269.723 355.799 266.089 354.38 262.045C352.96 258 352.25 253.798 352.25 249.437Z" fill="#2563EB"/>
<path d="M1126.94 47.125C1125.91 47.125 1125.05 46.7776 1124.35 46.0828C1123.66 45.388 1123.31 44.5271 1123.31 43.5V29C1123.31 27.9729 1123.66 27.112 1124.35 26.4172C1125.05 25.7224 1125.91 25.375 1126.94 25.375H1136C1137.03 25.375 1137.89 25.7224 1138.58 26.4172C1139.28 27.112 1139.63 27.9729 1139.63 29V43.5C1139.63 44.5271 1139.28 45.388 1138.58 46.0828C1137.89 46.7776 1137.03 47.125 1136 47.125H1126.94ZM1128.75 41.6875H1134.19V30.8125H1128.75V41.6875ZM1088.88 47.125V38.0625C1088.88 37.0354 1089.22 36.1745 1089.92 35.4797C1090.61 34.7849 1091.47 34.4375 1092.5 34.4375H1099.75V30.8125H1088.88V25.375H1101.56C1102.59 25.375 1103.45 25.7224 1104.15 26.4172C1104.84 27.112 1105.19 27.9729 1105.19 29V34.4375C1105.19 35.4646 1104.84 36.3255 1104.15 37.0203C1103.45 37.7151 1102.59 38.0625 1101.56 38.0625H1094.31V41.6875H1105.19V47.125H1088.88ZM1111.53 32.625V27.1875H1116.97V32.625H1111.53ZM1111.53 45.3125V39.875H1116.97V45.3125H1111.53ZM1085.25 65.25C1083.26 65.25 1081.55 64.5401 1080.13 63.1203C1078.71 61.7005 1078 59.9938 1078 58V14.5C1078 12.5063 1078.71 10.7995 1080.13 9.37969C1081.55 7.9599 1083.26 7.25 1085.25 7.25H1096.12V0H1103.38V7.25H1125.12V0H1132.38V7.25H1143.25C1145.24 7.25 1146.95 7.9599 1148.37 9.37969C1149.79 10.7995 1150.5 12.5063 1150.5 14.5V58C1150.5 59.9938 1149.79 61.7005 1148.37 63.1203C1146.95 64.5401 1145.24 65.25 1143.25 65.25H1085.25ZM1085.25 58H1111.53V52.5625H1116.97V58H1143.25V14.5H1116.97V19.9375H1111.53V14.5H1085.25V58Z" fill="#2563EB"/>
<path d="M675.95 279L670.875 273.925L705.675 239.125H696.25V246.375H689V231.875H710.116C711.082 231.875 712.019 232.056 712.925 232.419C713.831 232.781 714.617 233.295 715.281 233.959L726.156 244.744C727.787 246.375 729.781 247.644 732.138 248.55C734.494 249.456 737.031 249.94 739.75 250V257.25C736.004 257.25 732.606 256.676 729.555 255.528C726.504 254.38 723.8 252.658 721.444 250.363L717.819 246.556L709.844 254.531L718 262.688L694.256 276.372L690.631 270.119L706.219 261.147L700.056 254.984L675.95 279ZM667.25 253.625V246.375H685.375V253.625H667.25ZM660 242.75V235.5H678.125V242.75H660ZM726.972 235.5C724.978 235.5 723.256 234.79 721.806 233.37C720.356 231.951 719.631 230.244 719.631 228.25C719.631 226.256 720.356 224.549 721.806 223.13C723.256 221.71 724.978 221 726.972 221C728.966 221 730.688 221.71 732.138 223.13C733.588 224.549 734.312 226.256 734.312 228.25C734.312 230.244 733.588 231.951 732.138 233.37C730.688 234.79 728.966 235.5 726.972 235.5ZM667.25 231.875V224.625H685.375V231.875H667.25Z" fill="#2563EB"/>
<path d="M1302.52 108.781L1297.44 103.706L1300.16 100.896L1288.56 89.2963L1285.75 92.015L1280.58 86.8494L1283.3 84.04C1284.69 82.6504 1286.41 81.9708 1288.47 82.001C1290.52 82.0312 1292.24 82.7411 1293.63 84.1307L1305.33 95.8213C1306.71 97.2109 1307.41 98.9176 1307.41 100.942C1307.41 102.966 1306.71 104.672 1305.33 106.062L1302.52 108.781ZM1259.02 152.371C1257.63 153.761 1255.92 154.456 1253.9 154.456C1251.87 154.456 1250.16 153.761 1248.78 152.371L1237.08 140.681C1235.69 139.291 1235 137.584 1235 135.56C1235 133.536 1235.69 131.83 1237.08 130.44L1239.8 127.721L1244.97 132.887L1242.16 135.606L1253.85 147.296L1256.57 144.487L1261.73 149.653L1259.02 152.371ZM1294.99 121.921L1300.16 116.756L1272.7 89.2963L1267.53 94.4619L1294.99 121.921ZM1269.62 147.296L1274.78 142.04L1247.42 114.671L1242.16 119.837L1269.62 147.296ZM1269.08 126.09L1279.04 116.212L1273.24 110.412L1263.37 120.381L1269.08 126.09ZM1274.78 152.371C1273.39 153.761 1271.67 154.456 1269.62 154.456C1267.56 154.456 1265.84 153.761 1264.45 152.371L1237.08 125.003C1235.69 123.613 1235 121.891 1235 119.837C1235 117.783 1235.69 116.061 1237.08 114.671L1242.25 109.506C1243.64 108.116 1245.35 107.421 1247.37 107.421C1249.39 107.421 1251.1 108.116 1252.49 109.506L1258.2 115.215L1268.17 105.246L1262.46 99.6275C1261.07 98.2379 1260.38 96.5161 1260.38 94.4619C1260.38 92.4077 1261.07 90.6859 1262.46 89.2963L1267.62 84.1307C1269.01 82.7411 1270.72 82.0463 1272.75 82.0463C1274.77 82.0463 1276.48 82.7411 1277.87 84.1307L1305.33 111.59C1306.71 112.98 1307.41 114.686 1307.41 116.71C1307.41 118.734 1306.71 120.441 1305.33 121.831L1300.16 126.996C1298.77 128.386 1297.05 129.081 1294.99 129.081C1292.94 129.081 1291.22 128.386 1289.83 126.996L1284.21 121.287L1274.24 131.256L1279.95 136.965C1281.34 138.355 1282.03 140.061 1282.03 142.085C1282.03 144.109 1281.34 145.816 1279.95 147.206L1274.78 152.371Z" fill="#2563EB"/>
<path d="M895.25 317.5C890.235 317.5 885.523 316.548 881.113 314.645C876.702 312.742 872.866 310.159 869.603 306.897C866.341 303.634 863.758 299.798 861.855 295.388C859.952 290.977 859 286.265 859 281.25C859 276.235 859.952 271.523 861.855 267.113C863.758 262.702 866.341 258.866 869.603 255.603C872.866 252.341 876.702 249.758 881.113 247.855C885.523 245.952 890.235 245 895.25 245C900.265 245 904.977 245.952 909.388 247.855C913.798 249.758 917.634 252.341 920.897 255.603C924.159 258.866 926.742 262.702 928.645 267.113C930.548 271.523 931.5 276.235 931.5 281.25C931.5 286.265 930.548 290.977 928.645 295.388C926.742 299.798 924.159 303.634 920.897 306.897C917.634 310.159 913.798 312.742 909.388 314.645C904.977 316.548 900.265 317.5 895.25 317.5ZM913.375 272.188L918.269 270.556L919.719 265.663C917.785 262.763 915.459 260.27 912.741 258.186C910.022 256.102 907.031 254.546 903.769 253.519L898.875 256.963V262.038L913.375 272.188ZM877.125 272.188L891.625 262.038V256.963L886.731 253.519C883.469 254.546 880.478 256.102 877.759 258.186C875.041 260.27 872.715 262.763 870.781 265.663L872.231 270.556L877.125 272.188ZM873.319 300.1L877.488 299.738L880.206 294.844L874.95 279.075L869.875 277.263L866.25 279.981C866.25 283.908 866.794 287.488 867.881 290.72C868.969 293.953 870.781 297.079 873.319 300.1ZM895.25 310.25C896.821 310.25 898.361 310.129 899.872 309.888C901.382 309.646 902.863 309.283 904.312 308.8L906.85 303.363L904.494 299.375H886.006L883.65 303.363L886.188 308.8C887.638 309.283 889.118 309.646 890.628 309.888C892.139 310.129 893.679 310.25 895.25 310.25ZM887.094 292.125H903.406L908.481 277.625L895.25 268.381L882.2 277.625L887.094 292.125ZM917.181 300.1C919.719 297.079 921.531 293.953 922.619 290.72C923.706 287.488 924.25 283.908 924.25 279.981L920.625 277.444L915.55 279.075L910.294 294.844L913.013 299.738L917.181 300.1Z" fill="#2563EB"/>
<path d="M207.163 180.292C209.519 180.292 211.755 180.715 213.869 181.561C215.984 182.406 217.917 183.645 219.669 185.276L254.288 218.354H256.463C257.49 218.354 258.351 218.007 259.046 217.312C259.741 216.617 260.088 215.756 260.088 214.729C260.088 214.246 260.043 213.732 259.952 213.189C259.861 212.645 259.544 212.101 259 211.557L242.416 194.973L235.982 175.579L229.275 177.211C226.98 177.815 224.895 177.392 223.022 175.942C221.149 174.492 220.213 172.589 220.213 170.232V162.62L217.675 161.351L203.719 180.02C203.659 180.08 203.629 180.126 203.629 180.156C203.629 180.186 203.598 180.231 203.538 180.292H207.163ZM207.163 187.542H202.994C203.175 187.965 203.402 188.357 203.674 188.72C203.946 189.082 204.263 189.415 204.625 189.717L233.988 216.451C234.653 217.116 235.408 217.599 236.254 217.901C237.099 218.203 237.975 218.354 238.882 218.354H243.775L214.685 190.532C213.658 189.505 212.495 188.75 211.196 188.267C209.897 187.783 208.553 187.542 207.163 187.542ZM238.882 225.604C237.069 225.604 235.347 225.272 233.716 224.607C232.085 223.943 230.574 223.006 229.185 221.798L199.732 195.064C196.953 192.526 195.397 189.415 195.065 185.729C194.732 182.044 195.684 178.691 197.919 175.67L211.875 157.001C212.903 155.612 214.277 154.69 215.999 154.237C217.721 153.784 219.367 153.98 220.938 154.826L223.475 156.095C224.744 156.759 225.726 157.666 226.421 158.814C227.116 159.962 227.463 161.23 227.463 162.62V170.232L234.169 168.511C235.982 168.027 237.734 168.254 239.425 169.19C241.117 170.127 242.265 171.471 242.869 173.223L248.76 190.986L264.166 206.392C265.374 207.6 266.205 208.899 266.658 210.289C267.111 211.678 267.338 213.158 267.338 214.729C267.338 217.75 266.281 220.318 264.166 222.432C262.051 224.547 259.484 225.604 256.463 225.604H238.882Z" fill="#2563EB"/>
<path d="M456.5 161.25V154H471V142.763C468.04 142.098 465.396 140.844 463.07 139.002C460.744 137.159 459.038 134.848 457.95 132.069C453.419 131.525 449.628 129.546 446.577 126.133C443.526 122.719 442 118.717 442 114.125V110.5C442 108.506 442.71 106.799 444.13 105.38C445.549 103.96 447.256 103.25 449.25 103.25H456.5V96H492.75V103.25H500C501.994 103.25 503.701 103.96 505.12 105.38C506.54 106.799 507.25 108.506 507.25 110.5V114.125C507.25 118.717 505.724 122.719 502.673 126.133C499.622 129.546 495.831 131.525 491.3 132.069C490.213 134.848 488.506 137.159 486.18 139.002C483.854 140.844 481.21 142.098 478.25 142.763V154H492.75V161.25H456.5ZM456.5 124.275V110.5H449.25V114.125C449.25 116.421 449.915 118.49 451.244 120.333C452.573 122.176 454.325 123.49 456.5 124.275ZM474.625 135.875C477.646 135.875 480.214 134.818 482.328 132.703C484.443 130.589 485.5 128.021 485.5 125V103.25H463.75V125C463.75 128.021 464.807 130.589 466.922 132.703C469.036 134.818 471.604 135.875 474.625 135.875ZM492.75 124.275C494.925 123.49 496.677 122.176 498.006 120.333C499.335 118.49 500 116.421 500 114.125V110.5H492.75V124.275Z" fill="#2563EB"/>
<path d="M529.125 354.312C524.11 354.312 519.836 352.545 516.302 349.011C512.767 345.477 511 341.202 511 336.188C511 331.173 512.767 326.898 516.302 323.364C519.836 319.83 524.11 318.062 529.125 318.062C534.14 318.062 538.414 319.83 541.948 323.364C545.483 326.898 547.25 331.173 547.25 336.188C547.25 341.202 545.483 345.477 541.948 349.011C538.414 352.545 534.14 354.312 529.125 354.312ZM529.125 347.062C532.146 347.062 534.714 346.005 536.828 343.891C538.943 341.776 540 339.208 540 336.188C540 333.167 538.943 330.599 536.828 328.484C534.714 326.37 532.146 325.312 529.125 325.312C526.104 325.312 523.536 326.37 521.422 328.484C519.307 330.599 518.25 333.167 518.25 336.188C518.25 339.208 519.307 341.776 521.422 343.891C523.536 346.005 526.104 347.062 529.125 347.062ZM550.875 343.438V325.312L539.275 315.163C538.55 314.498 538.006 313.728 537.644 312.852C537.281 311.976 537.1 311.054 537.1 310.088C537.1 309.121 537.296 308.199 537.689 307.323C538.082 306.447 538.61 305.677 539.275 305.013L549.425 294.863C550.15 294.138 550.981 293.594 551.917 293.231C552.854 292.869 553.835 292.688 554.863 292.688C555.89 292.688 556.871 292.869 557.808 293.231C558.744 293.594 559.575 294.138 560.3 294.863L567.188 301.75C568.879 303.442 570.813 304.771 572.988 305.738C575.162 306.704 577.458 307.188 579.875 307.188V314.438C576.431 314.438 573.154 313.773 570.042 312.444C566.931 311.115 564.167 309.242 561.75 306.825L558.85 303.925L550.15 312.625L558.125 320.963V343.438H550.875ZM567.188 294.5C565.194 294.5 563.487 293.79 562.067 292.37C560.647 290.951 559.938 289.244 559.938 287.25C559.938 285.256 560.647 283.549 562.067 282.13C563.487 280.71 565.194 280 567.188 280C569.181 280 570.888 280.71 572.308 282.13C573.728 283.549 574.438 285.256 574.438 287.25C574.438 289.244 573.728 290.951 572.308 292.37C570.888 293.79 569.181 294.5 567.188 294.5ZM579.875 354.312C574.86 354.312 570.586 352.545 567.052 349.011C563.517 345.477 561.75 341.202 561.75 336.188C561.75 331.173 563.517 326.898 567.052 323.364C570.586 319.83 574.86 318.062 579.875 318.062C584.89 318.062 589.164 319.83 592.698 323.364C596.233 326.898 598 331.173 598 336.188C598 341.202 596.233 345.477 592.698 349.011C589.164 352.545 584.89 354.312 579.875 354.312ZM579.875 347.062C582.896 347.062 585.464 346.005 587.578 343.891C589.693 341.776 590.75 339.208 590.75 336.188C590.75 333.167 589.693 330.599 587.578 328.484C585.464 326.37 582.896 325.312 579.875 325.312C576.854 325.312 574.286 326.37 572.172 328.484C570.057 330.599 569 333.167 569 336.188C569 339.208 570.057 341.776 572.172 343.891C574.286 346.005 576.854 347.062 579.875 347.062Z" fill="#2563EB"/>
<path d="M748.625 175.5C742.583 175.5 737.448 173.385 733.219 169.156C728.99 164.927 726.875 159.792 726.875 153.75C726.875 153.085 726.905 152.421 726.966 151.756C727.026 151.092 727.117 150.427 727.238 149.763C726.935 149.883 726.573 149.974 726.15 150.034C725.727 150.095 725.365 150.125 725.062 150.125C722.525 150.125 720.38 149.249 718.628 147.497C716.876 145.745 716 143.6 716 141.062C716 138.525 716.831 136.38 718.492 134.628C720.154 132.876 722.253 132 724.791 132C726.784 132 728.582 132.559 730.183 133.677C731.784 134.794 732.917 136.229 733.581 137.981C735.575 136.169 737.856 134.719 740.423 133.631C742.991 132.544 745.725 132 748.625 132H788.5V146.5H770.375V153.75C770.375 159.792 768.26 164.927 764.031 169.156C759.802 173.385 754.667 175.5 748.625 175.5ZM725.062 144.688C726.09 144.688 726.951 144.34 727.645 143.645C728.34 142.951 728.688 142.09 728.688 141.062C728.688 140.035 728.34 139.174 727.645 138.48C726.951 137.785 726.09 137.438 725.062 137.438C724.035 137.438 723.174 137.785 722.48 138.48C721.785 139.174 721.438 140.035 721.438 141.062C721.438 142.09 721.785 142.951 722.48 143.645C723.174 144.34 724.035 144.688 725.062 144.688ZM748.625 166.438C752.129 166.438 755.12 165.199 757.597 162.722C760.074 160.245 761.312 157.254 761.312 153.75C761.312 150.246 760.074 147.255 757.597 144.778C755.12 142.301 752.129 141.062 748.625 141.062C745.121 141.062 742.13 142.301 739.653 144.778C737.176 147.255 735.938 150.246 735.938 153.75C735.938 157.254 737.176 160.245 739.653 162.722C742.13 165.199 745.121 166.438 748.625 166.438ZM748.625 161C750.619 161 752.326 160.29 753.745 158.87C755.165 157.451 755.875 155.744 755.875 153.75C755.875 151.756 755.165 150.049 753.745 148.63C752.326 147.21 750.619 146.5 748.625 146.5C746.631 146.5 744.924 147.21 743.505 148.63C742.085 150.049 741.375 151.756 741.375 153.75C741.375 155.744 742.085 157.451 743.505 158.87C744.924 160.29 746.631 161 748.625 161Z" fill="#2563EB"/>
<defs>
<clipPath id="clip0_5133_211">
<rect width="143.555" height="143.555" fill="white" transform="translate(1143.25 161) rotate(27.0339)"/>
</clipPath>
</defs>
</svg>
