<svg width="52" height="43" viewBox="0 0 52 43" fill="none" xmlns="http://www.w3.org/2000/svg">
<path d="M23.6364 35.9528V12.4222C22.0212 11.4667 20.3076 10.75 18.4955 10.2722C16.6833 9.79444 14.8515 9.55556 13 9.55556C11.5818 9.55556 10.1735 9.69491 8.775 9.97361C7.37651 10.2523 6.02727 10.6704 4.72727 11.2278V34.8778C6.10606 34.4 7.475 34.0417 8.83409 33.8028C10.1932 33.5639 11.5818 33.4444 13 33.4444C14.8515 33.4444 16.6538 33.6535 18.4068 34.0715C20.1598 34.4896 21.903 35.1167 23.6364 35.9528ZM26 43C24.1091 41.487 22.0606 40.3125 19.8545 39.4764C17.6485 38.6403 15.3636 38.2222 13 38.2222C11.3455 38.2222 9.72045 38.4412 8.125 38.8792C6.52955 39.3171 5.00303 39.9343 3.54545 40.7306C2.71818 41.1685 1.92045 41.1486 1.15227 40.6708C0.384091 40.1931 0 39.4963 0 38.5806V9.79444C0 9.35648 0.108333 8.93843 0.325 8.54028C0.541667 8.14213 0.866667 7.84352 1.3 7.64444C3.11212 6.68889 5.00303 5.97222 6.97273 5.49444C8.94242 5.01667 10.9515 4.77778 13 4.77778C15.9152 4.77778 18.397 5.1162 20.4455 5.79306C22.4939 6.46991 24.7 7.50509 27.0636 8.89861C27.497 9.1375 27.822 9.4162 28.0386 9.73472C28.2553 10.0532 28.3636 10.4713 28.3636 10.9889V35.9528C30.097 35.1167 31.8402 34.4896 33.5932 34.0715C35.3462 33.6535 37.1485 33.4444 39 33.4444C40.4182 33.4444 41.8068 33.5639 43.1659 33.8028C44.525 34.0417 45.8939 34.4 47.2727 34.8778V6.15139C47.8636 6.35046 48.4447 6.56944 49.0159 6.80833C49.5871 7.04722 50.1485 7.32593 50.7 7.64444C51.1333 7.84352 51.4583 8.14213 51.675 8.54028C51.8917 8.93843 52 9.35648 52 9.79444V38.5806C52 39.4963 51.6159 40.1931 50.8477 40.6708C50.0795 41.1486 49.2818 41.1685 48.4545 40.7306C46.997 39.9343 45.4705 39.3171 43.875 38.8792C42.2795 38.4412 40.6545 38.2222 39 38.2222C36.6364 38.2222 34.3515 38.6403 32.1455 39.4764C29.9394 40.3125 27.8909 41.487 26 43ZM34.2727 28.6667V2.38889L41.3636 0V26.2778L34.2727 28.6667Z" fill="#404040"/>
</svg>
