<svg width="54" height="56" viewBox="0 0 54 56" fill="none" xmlns="http://www.w3.org/2000/svg">
<rect width="54" height="56" rx="27" fill="#2563EB"/>
<path d="M27.3169 34.9375L26.6294 35.625C26.3169 35.9062 25.8481 35.9062 25.5669 35.625L19.5044 29.5312C19.1919 29.25 19.1919 28.7812 19.5044 28.5L25.5669 22.4062C25.8481 22.125 26.3481 22.125 26.6294 22.4062L27.3169 23.0938C27.6294 23.4062 27.5981 23.875 27.3169 24.1875L23.5356 27.75H32.5356C32.9419 27.75 33.2856 28.0938 33.2856 28.5V29.5C33.2856 29.9375 32.9419 30.25 32.5356 30.25H23.5356L27.3169 33.8438C27.5981 34.1562 27.6294 34.625 27.3169 34.9375Z" fill="white"/>
</svg>
