<svg width="54" height="56" viewBox="0 0 54 56" fill="none" xmlns="http://www.w3.org/2000/svg">
<rect x="54" y="56" width="54" height="56" rx="27" transform="rotate(-180 54 56)" fill="#2563EB"/>
<path d="M26.6831 21.0625L27.3706 20.375C27.6831 20.0938 28.1519 20.0938 28.4331 20.375L34.4956 26.4688C34.8081 26.75 34.8081 27.2188 34.4956 27.5L28.4331 33.5938C28.1519 33.875 27.6519 33.875 27.3706 33.5938L26.6831 32.9062C26.3706 32.5938 26.4019 32.125 26.6831 31.8125L30.4644 28.25H21.4644C21.0581 28.25 20.7144 27.9062 20.7144 27.5V26.5C20.7144 26.0625 21.0581 25.75 21.4644 25.75H30.4644L26.6831 22.1562C26.4019 21.8438 26.3706 21.375 26.6831 21.0625Z" fill="white"/>
</svg>
