<svg width="52" height="65" viewBox="0 0 52 65" fill="none" xmlns="http://www.w3.org/2000/svg">
<path d="M0 65V48.75C4.3875 45.2292 7.69167 41.4104 9.9125 37.2937C12.1333 33.1771 13.7042 29.4125 14.625 26H13C11.2125 26 9.68229 25.3635 8.40937 24.0906C7.13646 22.8177 6.5 21.2875 6.5 19.5V0H22.75V9.75H29.25V0H45.5V19.5C45.5 21.2875 44.8635 22.8177 43.5906 24.0906C42.3177 25.3635 40.7875 26 39 26H37.2937C38.2146 29.4125 39.7854 33.1771 42.0062 37.2937C44.2271 41.4104 47.5583 45.2292 52 48.75V65H0ZM6.5 58.5H45.5V51.7562C40.8417 47.5312 37.4156 43.1031 35.2219 38.4719C33.0281 33.8406 31.4708 29.6833 30.55 26H21.3687C20.5021 29.6833 18.9583 33.8406 16.7375 38.4719C14.5167 43.1031 11.1042 47.5312 6.5 51.7562V58.5ZM13 19.5H39V6.5H35.75V16.25H16.25V6.5H13V19.5Z" fill="#2563EB"/>
</svg>
