<svg width="93" height="93" viewBox="0 0 93 93" fill="none" xmlns="http://www.w3.org/2000/svg">
<path d="M36.1667 77.5V67.1667H44.175L57.7375 51.6667L44.175 36.1667H35.65L27.3833 80.6C26.6944 84.475 25.1014 87.5104 22.6042 89.7062C20.1069 91.9021 16.9208 93 13.0458 93C9.17083 93 6.02778 91.9667 3.61667 89.9C1.20556 87.8333 0 85.0778 0 81.6333C0 78.8778 0.731944 76.6604 2.19583 74.9812C3.65972 73.3021 5.51111 72.4625 7.75 72.4625C9.90278 72.4625 11.7326 73.1944 13.2396 74.6583C14.7465 76.1222 15.5 77.8875 15.5 79.9542C15.5 80.3847 15.4785 80.7722 15.4354 81.1167C15.3924 81.4611 15.3278 81.8486 15.2417 82.2792C15.6722 82.1931 16.0382 81.9562 16.3396 81.5687C16.641 81.1812 16.8778 80.6431 17.05 79.9542L25.0583 36.1667H10.3333V25.8333H26.9958L29.7083 11.1083C30.3111 7.83611 31.9257 5.16667 34.5521 3.1C37.1785 1.03333 40.3 0 43.9167 0C47.7056 0 50.8056 1.11944 53.2167 3.35833C55.6278 5.59722 56.8333 8.39583 56.8333 11.7542C56.8333 14.3375 56.1014 16.4688 54.6375 18.1479C53.1736 19.8271 51.3222 20.6667 49.0833 20.6667C46.9306 20.6667 45.1007 19.9347 43.5938 18.4708C42.0868 17.0069 41.3333 15.1986 41.3333 13.0458C41.3333 12.6153 41.3549 12.2278 41.3979 11.8833C41.441 11.5389 41.5056 11.1514 41.5917 10.7208C41.075 10.8931 40.6875 11.1514 40.4292 11.4958C40.1708 11.8403 39.9556 12.3569 39.7833 13.0458L37.5875 25.8333H62V36.1667H57.8667L64.5833 43.7875L71.3 36.1667H67.1667V25.8333H93V36.1667H84.9917L71.4292 51.6667L84.9917 67.1667H93V77.5H67.1667V67.1667H71.3L64.5833 59.4167L57.8667 67.1667H62V77.5H36.1667Z" fill="#404040"/>
</svg>
