<svg width="126" height="126" viewBox="0 0 126 126" fill="none" xmlns="http://www.w3.org/2000/svg">
<path d="M49 105V91H59.85L78.225 70L59.85 49H48.3L37.1 109.2C36.1667 114.45 34.0083 118.562 30.625 121.537C27.2417 124.512 22.925 126 17.675 126C12.425 126 8.16667 124.6 4.9 121.8C1.63333 119 0 115.267 0 110.6C0 106.867 0.991667 103.863 2.975 101.588C4.95833 99.3125 7.46667 98.175 10.5 98.175C13.4167 98.175 15.8958 99.1667 17.9375 101.15C19.9792 103.133 21 105.525 21 108.325C21 108.908 20.9708 109.433 20.9125 109.9C20.8542 110.367 20.7667 110.892 20.65 111.475C21.2333 111.358 21.7292 111.037 22.1375 110.512C22.5458 109.987 22.8667 109.258 23.1 108.325L33.95 49H14V35H36.575L40.25 15.05C41.0667 10.6167 43.2542 7 46.8125 4.2C50.3708 1.4 54.6 0 59.5 0C64.6333 0 68.8333 1.51667 72.1 4.55C75.3667 7.58333 77 11.375 77 15.925C77 19.425 76.0083 22.3125 74.025 24.5875C72.0417 26.8625 69.5333 28 66.5 28C63.5833 28 61.1042 27.0083 59.0625 25.025C57.0208 23.0417 56 20.5917 56 17.675C56 17.0917 56.0292 16.5667 56.0875 16.1C56.1458 15.6333 56.2333 15.1083 56.35 14.525C55.65 14.7583 55.125 15.1083 54.775 15.575C54.425 16.0417 54.1333 16.7417 53.9 17.675L50.925 35H84V49H78.4L87.5 59.325L96.6 49H91V35H126V49H115.15L96.775 70L115.15 91H126V105H91V91H96.6L87.5 80.5L78.4 91H84V105H49Z" fill="#404040"/>
</svg>
