<svg width="191" height="191" viewBox="0 0 191 191" fill="none" xmlns="http://www.w3.org/2000/svg">
<rect x="38" y="24" width="114" height="139" fill="#FAFAFA"/>
<path d="M72.5 101.15H117.5V89.85H72.5V101.15ZM72.5 118.1H117.5V106.8H72.5V118.1ZM72.5 135.05H100.625V123.75H72.5V135.05ZM61.25 152C58.1562 152 55.5078 150.894 53.3047 148.681C51.1016 146.468 50 143.808 50 140.7V50.3C50 47.1925 51.1016 44.5323 53.3047 42.3194C55.5078 40.1065 58.1562 39 61.25 39H106.25L140 72.9V140.7C140 143.808 138.898 146.468 136.695 148.681C134.492 150.894 131.844 152 128.75 152H61.25ZM100.625 78.55V50.3H61.25V140.7H128.75V78.55H100.625Z" fill="#2563EB"/>
</svg>
