<svg width="90" height="113" viewBox="0 0 90 113" fill="none" xmlns="http://www.w3.org/2000/svg">
<path d="M22.5 62.15H67.5V50.85H22.5V62.15ZM22.5 79.1H67.5V67.8H22.5V79.1ZM22.5 96.05H50.625V84.75H22.5V96.05ZM11.25 113C8.15625 113 5.50781 111.894 3.30469 109.681C1.10156 107.468 0 104.808 0 101.7V11.3C0 8.1925 1.10156 5.53229 3.30469 3.31938C5.50781 1.10646 8.15625 0 11.25 0H56.25L90 33.9V101.7C90 104.808 88.8984 107.468 86.6953 109.681C84.4922 111.894 81.8438 113 78.75 113H11.25ZM50.625 39.55V11.3H11.25V101.7H78.75V39.55H50.625Z" fill="#2563EB"/>
</svg>
