<svg width="153" height="118" viewBox="0 0 153 118" fill="none" xmlns="http://www.w3.org/2000/svg">
<path d="M39.5594 32.1328L50.6984 39.9748C52.8016 37.3618 54.9344 34.8649 57.097 32.484C59.2596 30.1032 61.5794 27.7564 64.0564 25.4438L55.6268 21.8067L39.5594 32.1328ZM59.0573 50.0089L73.1312 71.641C77.8967 70.9208 83.1695 69.379 88.9499 67.0156C94.7302 64.6521 100.298 61.7494 105.654 58.3074C114.58 52.5706 122.084 45.6759 128.166 37.6231C134.247 29.5703 137.844 21.7183 138.955 14.0671C131.522 11.9068 122.85 11.9167 112.939 14.0967C103.028 16.2767 93.6097 20.235 84.6833 25.9718C79.3275 29.4138 74.3752 33.2722 69.8265 37.547C65.2777 41.8218 61.688 45.9757 59.0573 50.0089ZM89.2561 45.8719C87.3677 42.9412 86.8038 39.7223 87.5645 36.2153C88.3252 32.7082 90.172 30.0123 93.105 28.1273C96.0379 26.2424 99.2862 25.6864 102.85 26.4594C106.413 27.2324 109.139 29.0842 111.028 32.0149C112.916 34.9456 113.48 38.1645 112.719 41.6715C111.959 45.1785 110.112 47.8745 107.179 49.7595C104.246 51.6444 100.998 52.2004 97.4341 51.4274C93.8705 50.6544 91.1445 48.8026 89.2561 45.8719ZM81.3096 96.9269L97.3771 86.6008L97.5551 77.4319C94.4212 78.7252 91.3271 79.8353 88.2728 80.7622C85.2184 81.6891 82.0649 82.567 78.8122 83.3961L81.3096 96.9269ZM152.761 5.05913C152.005 18.1583 148.099 30.2181 141.045 41.2387C133.99 52.2592 123.832 62.031 110.57 70.5542L110.342 86.7823C110.307 88.967 109.76 90.9857 108.699 92.8384C107.639 94.691 106.216 96.191 104.431 97.3384L72.2962 117.991L65.7999 84.1909L44.74 51.5071L16.6292 31.5985L48.6069 10.9121C50.3922 9.76479 52.3748 9.09871 54.5549 8.91391C56.735 8.7291 58.8277 9.07342 60.8331 9.94685L75.7165 16.4635C88.9785 7.94039 102.072 2.72388 114.997 0.814028C127.922 -1.09583 140.51 0.319203 152.761 5.05913ZM20.6048 67.1533C25.068 64.285 29.9518 63.3987 35.2561 64.4944C40.5605 65.5901 44.6495 68.3679 47.5232 72.8277C50.3968 77.2874 51.2341 82.155 50.035 87.4304C48.8358 92.7057 46.0047 96.7776 41.5415 99.6459C38.3535 101.695 33.4894 102.996 26.9492 103.551C20.4089 104.105 11.582 103.944 0.468506 103.068C4.27473 92.6039 7.78534 84.5141 11.0003 78.7991C14.2153 73.0841 17.4168 69.2022 20.6048 67.1533ZM27.6588 77.8909C26.3836 78.7104 24.9211 80.3936 23.2712 82.9405C21.6214 85.4874 20.2803 88.1286 19.2479 90.8643C22.1687 91.0593 25.1257 90.9608 28.1189 90.5688C31.1121 90.1767 33.2464 89.5709 34.5216 88.7514C36.0518 87.7679 37.0623 86.3977 37.5532 84.6408C38.044 82.8838 37.7968 81.2408 36.8115 79.7117C35.8263 78.1827 34.4371 77.2511 32.6439 76.9169C30.8508 76.5828 29.1891 76.9074 27.6588 77.8909Z" fill="#2563EB"/>
</svg>
