<svg width="37" height="35" viewBox="0 0 37 35" fill="none" xmlns="http://www.w3.org/2000/svg">
<path d="M37 17.5C37 22.1413 35.0509 26.5925 31.5815 29.8744C28.1121 33.1563 23.4065 35 18.5 35C13.5935 35 8.88795 33.1563 5.41852 29.8744C1.9491 26.5925 0 22.1413 0 17.5C0 12.8587 1.9491 8.40752 5.41852 5.12563C8.88795 1.84375 13.5935 0 18.5 0C23.4065 0 28.1121 1.84375 31.5815 5.12563C35.0509 8.40752 37 12.8587 37 17.5ZM19.1637 12.9194C17.363 13.6281 13.7663 15.0938 8.37356 17.3163C7.49944 17.6444 7.04079 17.9667 6.99763 18.2831C6.92825 18.8147 7.63356 19.0247 8.59325 19.3113L8.99794 19.4316C9.94144 19.7225 11.2133 20.0616 11.8724 20.0747C12.4736 20.0893 13.1427 19.8559 13.8796 19.3747C18.9193 16.1576 21.5201 14.5316 21.682 14.4966C21.7976 14.4703 21.9595 14.4397 22.0659 14.5316C22.1722 14.6234 22.163 14.7941 22.1514 14.84C22.0821 15.1222 19.314 17.5547 17.8826 18.8147C17.4363 19.2084 17.1194 19.4863 17.0547 19.5497C16.9122 19.6876 16.7672 19.8232 16.6199 19.9566C15.7412 20.7572 15.0844 21.3566 16.6546 22.3366C17.4108 22.8091 18.0167 23.1963 18.6203 23.5856C19.277 24.01 19.9337 24.4322 20.7847 24.9616C21.0006 25.0957 21.2087 25.2321 21.4091 25.3706C22.1746 25.8869 22.866 26.3506 23.7147 26.2763C24.2096 26.2325 24.7206 25.795 24.9796 24.4825C25.5924 21.3828 26.7972 14.6694 27.0747 11.9022C27.0922 11.6722 27.0821 11.441 27.0447 11.2131C27.0223 11.0294 26.9283 10.8602 26.7811 10.7384C26.5704 10.6016 26.3197 10.5304 26.0642 10.535C25.3704 10.5459 24.2997 10.8981 19.1637 12.9194Z" fill="white"/>
</svg>
