<svg width="159" height="143" viewBox="0 0 159 143" fill="none" xmlns="http://www.w3.org/2000/svg">
<path d="M0 143V127.111H31.8V95.3333H15.9V79.4444H32.595C34.185 69.5139 38.5906 60.9405 45.8119 53.7243C53.0331 46.5081 61.6125 42.1056 71.55 40.5167V0H127.2V31.7778H87.45V40.5167C97.3875 42.1056 105.967 46.5081 113.188 53.7243C120.409 60.9405 124.815 69.5139 126.405 79.4444H143.1V95.3333H127.2V127.111H159V143H0ZM47.7 127.111H71.55V95.3333H47.7V127.111ZM87.45 127.111H111.3V95.3333H87.45V127.111ZM48.8925 79.4444H110.108C108.253 72.4268 104.476 66.7002 98.7788 62.2646C93.0813 57.8289 86.655 55.6111 79.5 55.6111C72.345 55.6111 65.9188 57.8289 60.2213 62.2646C54.5238 66.7002 50.7475 72.4268 48.8925 79.4444Z" fill="#2563EB"/>
</svg>
