<svg width="38" height="38" viewBox="0 0 38 38" fill="none" xmlns="http://www.w3.org/2000/svg">
<path d="M32.4484 5.52436C30.6987 3.76567 28.6147 2.37143 26.3181 1.42297C24.0214 0.474517 21.558 -0.00916942 19.0716 0.000131634C8.65306 0.000131634 0.16223 8.45035 0.152687 18.8243C0.152687 22.1469 1.02587 25.3793 2.67441 28.2412L0 38L10.0296 35.3828C12.803 36.8891 15.9123 37.6772 19.0716 37.6746H19.0811C29.502 37.6746 37.9904 29.2244 38 18.8409C38.0021 16.3663 37.5125 13.9158 36.5593 11.6303C35.6061 9.34489 34.2105 7.26974 32.4484 5.52436ZM19.0716 34.4874C16.2544 34.4852 13.4895 33.7306 11.065 32.3024L10.4925 31.9604L4.54244 33.5136L6.13134 27.7353L5.75916 27.1392C4.18412 24.6462 3.35112 21.7599 3.35673 18.8148C3.35673 10.2031 10.4113 3.17787 19.0811 3.17787C21.1465 3.17418 23.1923 3.57752 25.1004 4.36463C27.0085 5.15175 28.7412 6.30706 30.1986 7.76398C31.6609 9.21545 32.8201 10.9406 33.6095 12.8401C34.3989 14.7396 34.803 16.7758 34.7983 18.8314C34.7888 27.474 27.7342 34.4874 19.0716 34.4874ZM27.696 22.7692C27.226 22.5341 24.9047 21.3964 24.4681 21.2349C24.0339 21.0806 23.7166 20.9998 23.4064 21.4701C23.0891 21.9379 22.1826 23.0043 21.9106 23.3107C21.6386 23.6266 21.3571 23.6622 20.8847 23.4294C20.4147 23.1919 18.8903 22.6979 17.0866 21.0901C15.6791 19.8432 14.7367 18.2994 14.4552 17.8316C14.1832 17.3613 14.4289 17.1096 14.6651 16.8744C14.8727 16.6654 15.1351 16.3235 15.3713 16.0527C15.6099 15.782 15.6886 15.5825 15.8437 15.269C15.9987 14.9507 15.9248 14.68 15.8079 14.4448C15.6886 14.2097 14.7462 11.8893 14.3478 10.9536C13.9661 10.0297 13.5772 10.158 13.2862 10.1461C13.0142 10.1295 12.6969 10.1295 12.3796 10.1295C12.14 10.1355 11.9042 10.1908 11.6871 10.2917C11.4699 10.3927 11.276 10.5371 11.1175 10.7161C10.6833 11.1863 9.46898 12.324 9.46898 14.6443C9.46898 16.9647 11.1629 19.1948 11.4014 19.5107C11.6352 19.8266 14.7271 24.5742 19.4724 26.6167C20.5937 27.1035 21.4764 27.3909 22.1659 27.6094C23.2991 27.9704 24.3226 27.9158 25.1385 27.7994C26.0451 27.6617 27.9322 26.6594 28.3306 25.5598C28.7219 24.4578 28.7219 23.5173 28.6026 23.3202C28.4857 23.1207 28.1684 23.0043 27.696 22.7692Z" fill="white"/>
</svg>
