<svg width="46" height="31" viewBox="0 0 46 31" fill="none" xmlns="http://www.w3.org/2000/svg">
<path d="M23.1481 0H23.404C25.7674 0.00827476 37.7425 0.0910228 40.9713 0.924015C41.9474 1.17824 42.8369 1.67377 43.5508 2.36109C44.2647 3.0484 44.7781 3.90343 45.0397 4.84073C45.3301 5.88887 45.5342 7.27627 45.6722 8.7078L45.701 8.99466L45.7642 9.71181L45.7872 9.99866C45.9741 12.5197 45.9971 14.8808 46 15.3966V15.6034C45.9971 16.1385 45.9712 18.6596 45.7642 21.2854L45.7412 21.5751L45.7154 21.8619C45.5716 23.4396 45.3588 25.0063 45.0397 26.1593C44.7781 27.0966 44.2647 27.9516 43.5508 28.6389C42.8369 29.3262 41.9474 29.8218 40.9713 30.076C37.6361 30.9366 24.9594 30.9972 23.2027 31H22.7944C21.906 31 18.2315 30.9834 14.3788 30.8566L13.89 30.84L13.6399 30.829L13.1482 30.8097L12.6565 30.7904C9.46509 30.6552 6.42603 30.4373 5.02581 30.0732C4.05006 29.8192 3.16083 29.3241 2.44692 28.6373C1.73302 27.9505 1.21943 27.0961 0.957435 26.1593C0.63829 25.0091 0.425527 23.4396 0.281768 21.8619L0.258766 21.5723L0.235765 21.2854C0.0930507 19.4165 0.0144199 17.5435 0 15.6696L0 15.3304C0.00575036 14.7373 0.0287518 12.688 0.184012 10.4262L0.204138 10.1421L0.212763 9.99866L0.235765 9.71181L0.299019 8.99466L0.327771 8.7078C0.465779 7.27627 0.669917 5.88611 0.96031 4.84073C1.22187 3.90343 1.73526 3.0484 2.44919 2.36109C3.16313 1.67377 4.05259 1.17824 5.02869 0.924015C6.4289 0.565442 9.46797 0.344781 12.6594 0.206869L13.1482 0.187561L13.6427 0.171012L13.89 0.162737L14.3816 0.14343C17.118 0.0590366 19.8554 0.0121412 22.5932 0.00275838L23.1481 0ZM18.4012 8.85399V22.1433L30.3533 15.5014L18.4012 8.85399Z" fill="white"/>
</svg>
